<?xml version="1.0" encoding="UTF-8"?>
<svg width="1220px" height="360px" viewBox="0 0 1220 360" version="1.1" xmlns="http://www.w3.org/2000/svg" xmlns:xlink="http://www.w3.org/1999/xlink">
    <title>Things Logo</title>
    <defs>
        <path d="M170.267873,212.292484 L168.813873,247.300484 L73.0838731,247.300484 L71.7608731,212.292484 L170.267873,212.292484 Z" id="path-1"></path>
    </defs>
    <g id="Things-Logo" stroke="none" stroke-width="1" fill="none" fill-rule="evenodd">
        <g transform="translate(51, 39)">
            <g id="Things" transform="translate(321, 43)" fill="#2B323B" fill-rule="nonzero">
                <polygon id="Shape" points="137.57 11.87 137.57 48.12 90.32 48.12 90.32 186.87 47.32 186.87 47.32 48.12 0.07 48.12 0.07 11.87"></polygon>
                <path d="M156.32,186.87 L156.32,4.37 L198.32,4.37 L198.32,69.87 C204.32,59.87 217.82,52.87 233.07,52.87 C263.07,52.87 279.07,72.12 279.07,102.37 L279.07,186.87 L237.07,186.87 L237.07,108.87 C237.07,96.87 230.82,89.37 218.07,89.37 C207.32,89.37 198.32,94.37 198.32,109.37 L198.32,186.87 L156.32,186.87 Z" id="Shape"></path>
                <path d="M327.56,0.62 C341.56,0.62 350.81,9.12 350.81,22.37 C350.81,35.62 341.56,44.12 327.56,44.12 C313.56,44.12 304.31,35.62 304.31,22.37 C304.31,9.12 313.56,0.62 327.56,0.62 Z M306.56,186.87 L306.56,55.87 L348.56,55.87 L348.56,186.87 L306.56,186.87 Z" id="Shape"></path>
                <path d="M377.31,186.87 L377.31,55.87 L417.56,55.87 L417.56,71.12 C424.31,59.12 437.31,52.87 454.06,52.87 C484.06,52.87 500.06,72.12 500.06,102.37 L500.06,186.87 L458.06,186.87 L458.06,108.87 C458.06,96.87 451.81,89.37 439.06,89.37 C428.31,89.37 419.31,94.37 419.31,109.37 L419.31,186.87 L377.31,186.87 Z" id="Shape"></path>
                <path d="M651.06,182.87 C651.06,211.37 624.31,233.37 585.56,233.37 C553.56,233.37 526.56,217.62 522.06,191.37 L562.82,191.37 C566.07,198.62 574.82,202.12 585.57,202.12 C600.32,202.12 609.07,193.62 609.07,181.62 L609.07,166.12 C602.82,173.62 589.32,180.37 574.82,180.37 C538.57,180.37 520.82,153.87 520.82,125.62 L520.82,107.62 C520.82,78.62 538.82,52.87 575.07,52.87 C593.07,52.87 607.07,62.37 611.07,69.62 L611.07,55.87 L651.07,55.87 L651.06,182.87 Z M585.56,86.87 C569.81,86.87 562.31,96.87 562.31,110.37 L562.31,122.87 C562.31,136.62 569.81,146.37 585.31,146.37 C599.56,146.37 609.06,137.87 609.06,123.62 L609.06,109.62 C609.06,94.62 598.06,86.87 585.56,86.87 Z" id="Shape"></path>
                <path d="M730.82,189.87 C696.07,189.87 673.07,174.37 673.07,147.87 L673.07,145.12 L710.07,145.12 L710.07,146.87 C710.07,156.12 718.57,160.87 731.07,160.87 C742.32,160.87 750.82,156.87 750.82,149.37 C750.82,144.62 748.57,141.87 742.07,140.37 L705.82,132.12 C685.57,127.62 675.07,115.37 675.07,96.87 C675.07,68.62 697.57,52.87 729.32,52.87 C760.32,52.87 782.57,68.87 782.57,95.12 L782.57,97.37 L746.32,97.37 L746.32,95.12 C746.32,87.12 741.57,81.87 729.82,81.87 C719.07,81.87 714.07,85.37 714.07,92.62 C714.07,97.62 716.57,100.12 722.32,101.37 L760.57,110.62 C778.32,114.87 789.32,126.12 789.32,144.12 C789.31,170.37 765.82,189.87 730.82,189.87 Z" id="Shape"></path>
            </g>
            <g id="Box" transform="translate(0, 0)">
                <rect id="White-Background" fill="#FFFFFF" x="25.4764323" y="41.9394345" width="191.617482" height="218.121243"></rect>
                <g id="Paper-Front" fill-rule="nonzero">
                    <use fill="#FFFFFF" xlink:href="#path-1"></use>
                    <use fill-opacity="0.6" fill="#9299A4" xlink:href="#path-1"></use>
                </g>
                <path d="M177.386542,0 C178.030436,0 178.674329,0.00411170927 179.318223,0.00822341853 C180.60601,0.0164468371 181.893798,0.0320713323 183.180763,0.0633203227 C185.751403,0.126640645 188.314643,0.252458949 190.87706,0.489293403 C197.892458,1.13812113 204.689936,2.60846836 211.190548,5.47268503 C217.428011,8.22095151 223.050363,12.1204966 227.667812,17.1746096 C232.381476,22.3348047 235.733341,28.346946 237.796597,35.0046257 C238.821235,38.3096176 239.49391,41.6491478 239.926462,45.0766687 C240.361481,48.5157023 240.539107,51.957203 240.629564,55.4167952 C240.647656,56.1050953 240.662458,56.7933954 240.675616,57.4816956 L240.695352,58.5145569 L240.695352,58.5145569 C240.697819,58.6864264 240.701108,58.8591182 240.704398,59.0309876 L242.091688,138.171523 L242.091688,138.171523 L242.519306,162.584385 L242.519306,162.584385 L242.528352,163.131243 C242.534931,163.496363 242.539865,163.861482 242.545621,164.226602 C242.557134,164.956842 242.56618,165.687081 242.571936,166.418143 C242.583449,167.879445 242.577394,169.339924 242.547266,170.801225 C242.485808,173.635475 242.317444,176.451907 241.968488,179.267063 L241.936016,179.524628 L241.93791,179.524628 C239.459372,198.889134 236.981656,218.25364 234.504762,237.617323 C233.786036,243.233096 232.329668,248.616146 229.80919,253.722066 C227.292824,258.818119 223.861192,263.327019 219.612151,267.101568 C215.431365,270.815264 210.63629,273.663034 205.445668,275.694218 C200.078243,277.795301 194.528258,278.937534 188.823672,279.495904 C186.339378,279.738495 183.853438,279.868425 181.359275,279.93339 C180.109316,279.966284 178.859356,279.981908 177.608574,279.990954 C177.191921,279.993695 176.774902,279.99534 176.357762,279.996619 L175.73199,280 C175.523663,280 175.315337,280 175.106767,280 L174.793698,280 L67.783175,280 C67.4706851,280 67.1581952,280 66.8457053,280 C66.2207255,279.996711 65.5957456,279.995066 64.9707658,279.990954 C63.7216286,279.983553 62.4733136,279.966284 61.2241764,279.93339 C58.7324805,279.868425 56.2481858,279.739318 53.7663581,279.497549 C48.0593056,278.940824 42.5076758,277.798591 37.1377835,275.697507 C31.9446947,273.666323 27.1471523,270.817731 22.9647216,267.10239 C18.7156813,263.327841 15.2832264,258.819763 12.7668603,253.722888 C10.2463825,248.616968 8.7900151,243.233918 8.07128832,237.618146 L0.638140304,179.524628 L0.638140304,179.524628 L0.640828205,179.52471 L0.640607329,179.522983 C0.273020521,176.648076 0.0962170223,173.771524 0.0312520159,170.876881 C8.84332962e-08,169.428737 -0.00575336755,167.980593 0.00493707654,166.531626 C0.00987112767,165.807143 0.0189168881,165.083482 0.0296073321,164.358999 L0.0468765111,163.272686 L0.0468765111,163.272686 L0.11296843,159.442217 L0.11296843,159.442217 L0.247527923,151.781281 L0.247527923,151.781281 L1.70636237,68.5389041 L1.70636237,68.5389041 C1.74693124,66.2144178 1.78676913,63.8906625 1.82758165,61.5666635 L1.8897446,58.0803604 C1.89632334,57.6946821 1.90372442,57.3090038 1.91194783,56.9233254 C1.92757233,56.1527911 1.94648619,55.3814345 1.96951176,54.6109001 C2.01556291,53.0714762 2.0821726,51.5328746 2.18414299,49.9959177 C2.38726143,46.9261155 2.732645,43.8916741 3.3181524,40.8679231 C4.19805819,36.3179056 5.59028294,31.9545597 7.65189397,27.7902206 C9.72172842,23.610257 12.3852937,19.8003471 15.6064067,16.4271009 C18.7773569,13.1073068 22.4063515,10.2948977 26.3782627,8.00549794 C30.4488548,5.65935663 34.7932868,3.90941317 39.3153447,2.670144 C43.7905291,1.44403229 48.291206,0.750798112 52.9053662,0.384855987 C56.3556042,0.111427321 59.6598087,0.0321270117 63.0334958,0.00922885994 L63.612563,0.00583027525 C63.709201,0.00534736356 63.8059059,0.00490406991 63.9026825,0.00449718201 L64.484244,0 L64.484244,0 L65.3603451,0 L65.3603451,0 L66.2416807,0 L66.2416807,0 L177.386542,0 Z M196.330416,49.0264934 L46.2456299,49.0264934 L46.2456299,49.0264934 L45.9379772,49.0264934 L45.9379772,49.0264934 L45.7344109,49.0286986 C45.6329087,49.0295402 45.5318123,49.0306767 45.4310514,49.0322063 L45.229956,49.0358188 C44.1261615,49.0588902 43.0572742,49.1374476 41.9295694,49.4021868 C40.4444201,49.7508598 39.0571294,50.3922864 37.8885816,51.3971882 C36.7167444,52.4045569 35.8820675,53.6767198 35.4026422,55.142133 C35.0347203,56.2672185 34.9176748,57.3368043 34.8736929,58.449824 L34.8676214,58.617115 L34.8676214,58.617115 L34.8625124,58.7851318 L34.8625124,58.7851318 L34.8582327,58.9539485 L34.8582327,58.9539485 L34.8546489,59.1236392 L34.8546489,59.1236392 L34.8516276,59.2942783 L34.8516276,59.2942783 L34.8478586,59.5521774 L34.8478586,59.5521774 L33.1666431,192.064629 L33.1666431,192.064629 C34.0908687,192.970251 35.0926071,193.793448 36.1657754,194.534011 C37.0843312,195.168037 38.0357808,195.729696 39.0308144,196.233792 C40.0258481,196.737887 41.0422626,197.173729 42.0899261,197.554473 C44.4442908,198.411353 46.8973366,198.969723 49.3569611,199.388295 C50.5962302,199.598815 51.8396111,199.773973 53.085459,199.93433 C53.9683017,200.047108 54.8524032,200.151915 55.7365645,200.254744 L57.4785902,200.456398 L57.4785902,200.456398 L58.1595253,200.535832 C60.0885838,200.762285 62.0152301,201.002826 63.9337928,201.315042 C66.0710592,201.662893 68.1795437,202.096267 70.2674697,202.681774 C71.3504939,202.986041 72.4170713,203.328135 73.4680242,203.727793 C74.3808237,204.075644 75.2714199,204.461322 76.1389905,204.911965 C76.8766312,205.295999 77.5838452,205.71786 78.2548761,206.212088 C78.8181803,206.626548 79.3362557,207.075547 79.8041682,207.597734 C80.5697685,208.451325 81.0936002,209.38715 81.362506,210.509646 C81.4792785,210.998117 81.5417765,211.489878 81.5779596,211.989862 C81.6133203,212.479155 81.6289448,212.970093 81.6503256,213.461031 L81.9008315,219.219891 L82.6659178,236.768666 L82.7917361,239.668244 L82.7917361,239.668244 L82.8550565,241.110631 L82.8550565,241.110631 L82.8691519,241.467875 C82.8844552,241.831568 82.9091254,242.209486 82.9948546,242.555486 C83.1321857,243.108922 83.4060255,243.559565 83.7991049,243.964158 C84.0441628,244.216617 84.3138909,244.430425 84.6049999,244.626143 C84.9561399,244.862155 85.3229044,245.061162 85.704471,245.240432 C86.6583875,245.688609 87.7068734,246.015078 88.7241103,246.266715 C90.0036742,246.583316 91.2931062,246.794658 92.6006298,246.950081 C94.4098863,247.165017 96.2181708,247.260891 98.0322079,247.301239 L144.546792,247.301239 C146.359527,247.261094 148.166409,247.16569 149.973776,246.950903 C151.2813,246.795481 152.571554,246.584139 153.851118,246.267537 C154.869177,246.015901 155.917663,245.689431 156.87158,245.241255 C157.253146,245.061984 157.619911,244.862977 157.971051,244.626965 C158.26216,244.431248 158.531888,244.217439 158.776946,243.96498 C159.170025,243.560388 159.443865,243.109744 159.580374,242.555486 C159.665486,242.210102 159.690465,241.832339 159.705961,241.468337 L159.720172,241.110631 L159.720172,241.110631 L159.783492,239.668244 L159.910133,236.768666 C160.082002,232.838695 160.253049,228.907901 160.424096,224.977107 C160.591854,221.138415 160.759612,217.298901 160.926547,213.460209 C160.947928,212.970093 160.963553,212.479155 160.998913,211.989039 C161.035096,211.489878 161.096772,210.998117 161.214367,210.508824 C161.484095,209.386327 162.007927,208.450502 162.773527,207.597734 C163.242262,207.075547 163.76116,206.626548 164.323642,206.21291 C164.995495,205.718683 165.701886,205.296821 166.440349,204.91361 C167.30792,204.462967 168.198516,204.077288 169.112138,203.729438 C170.163913,203.32978 171.230491,202.987685 172.312693,202.684241 C174.399796,202.098734 176.508281,201.666182 178.645547,201.318331 C180.56411,201.006116 182.490756,200.765574 184.419378,200.539121 L185.100141,200.459688 L185.100141,200.459688 L186.84179,200.258014 C187.725712,200.155137 188.609394,200.050163 189.492236,199.936797 C190.738084,199.777263 191.981465,199.601282 193.219912,199.390762 C195.677892,198.97219 198.133404,198.412998 200.486125,197.55694 C201.532966,197.175373 202.550203,196.740354 203.540302,196.233792 C204.535336,195.729696 205.487608,195.168037 206.405341,194.534011 C207.480036,193.792063 208.483597,192.96717 209.409446,192.059662 L207.727015,59.4659333 L207.727015,59.4659333 L207.722974,59.2087959 L207.722974,59.2087959 L207.717815,58.9538509 L207.717815,58.9538509 L207.713533,58.7849835 C207.712754,58.7569069 207.71194,58.7288633 207.711089,58.7008511 L207.705511,58.5331433 C207.664024,57.3895524 207.55033,56.2937009 207.172586,55.1404883 C206.693161,53.6767198 205.859306,52.4045569 204.688291,51.3980105 C203.518921,50.3922864 202.131631,49.7508598 200.645659,49.4021868 C199.517954,49.1374476 198.449509,49.0588902 197.34595,49.0358188 L197.144895,49.0322063 C197.077734,49.0311866 197.010423,49.0303415 196.942941,49.0296421 L196.73996,49.0264934 L196.73996,49.0264934 L196.433289,49.0264934 C196.399055,49.0264934 196.364765,49.0264934 196.330416,49.0264934 L196.330416,49.0264934 Z" fill="#2473E7" fill-rule="nonzero"></path>
                <path d="M114.121316,141.589998 C104.503206,134.228394 94.8859178,126.867612 85.2678075,119.506008 C83.3846446,121.499364 81.5146392,123.504234 79.659436,125.524728 C78.7318344,126.534563 77.8091669,127.548511 76.8980121,128.573149 C76.4424347,129.085468 75.9901467,129.601076 75.5469044,130.124086 C75.3248721,130.386413 75.1053068,130.651207 74.8947873,130.923402 C74.6143688,131.286055 74.5666729,131.387203 74.3273714,131.77617 C75.0058035,132.288489 75.1645155,132.406084 75.8265006,132.940606 C76.3182611,133.336975 76.8059098,133.7391 77.2902691,134.143692 C78.2589878,134.953699 79.2194831,135.773574 80.1750444,136.599205 C82.0886339,138.25129 83.9865989,139.918999 85.8788075,141.594932 C89.6632247,144.945975 93.4221493,148.324978 97.1728505,151.713849 C104.111771,157.98585 112.694553,165.822768 119.573443,172.161379 C121.737846,168.899971 124.735282,164.507021 126.955605,161.282618 C129.440722,157.67336 131.946398,154.077259 134.470165,150.495138 C139.5177,143.328429 144.636778,136.215172 149.83809,129.160301 C160.00388,115.37374 171.192663,100.855294 182.249872,87.7619673 C181.939026,87.2093536 181.906133,87.1452109 181.565683,86.6098663 C181.325559,86.2332338 181.078857,85.8607129 180.829687,85.4898367 C180.330526,84.7480844 179.820674,84.0145555 179.299309,83.2884276 C178.777944,82.5622997 178.248356,81.843573 177.695742,81.1404707 C177.419436,80.7885084 177.137372,80.4414801 176.83804,80.109254 C176.689196,79.9439633 176.537885,79.7819619 176.37095,79.6347627 C176.287071,79.5599296 176.195791,79.4941423 176.106156,79.4283549 C176.014876,79.3625676 175.924418,79.2967802 175.833138,79.2301705 C173.022374,81.5746672 170.284798,83.9956416 167.584227,86.4651342 C164.884479,88.9346268 162.227492,91.4468811 159.595176,93.9879174 C154.408666,98.9935123 149.09716,104.335445 144.074296,109.503864 C138.974954,114.751227 133.938932,120.056977 128.947317,125.40631 C124.324934,130.360098 118.641729,136.543286 114.121316,141.589998 Z" id="Checkmark" fill-opacity="0.8" fill="#05101C" fill-rule="nonzero"></path>
            </g>
        </g>
    </g>
</svg>