<?xml version="1.0" encoding="UTF-8"?>
<svg width="4000px" height="4000px" viewBox="0 0 4000 4000" version="1.1" xmlns="http://www.w3.org/2000/svg" xmlns:xlink="http://www.w3.org/1999/xlink">
    <title>Things Logo - Solo</title>
    <defs>
        <path d="M2070.53141,2581.56 L2052.85241,3007.279 L888.728407,3007.279 L872.641407,2581.56 L2070.53141,2581.56 Z" id="path-1"></path>
    </defs>
    <g id="Things-Logo---Solo" stroke="none" stroke-width="1" fill="none" fill-rule="evenodd">
        <g id="Icon" transform="translate(525, 298)">
            <rect id="White-Background" fill="#FFFFFF" x="309.803425" y="510" width="2330.14386" height="2652.44"></rect>
            <g id="Paper-Front" fill-rule="nonzero">
                <use fill="#FFFFFF" xlink:href="#path-1"></use>
                <use fill-opacity="0.6" fill="#9299A4" xlink:href="#path-1"></use>
            </g>
            <path d="M2157.09004,0 C2164.92004,0 2172.75004,0.05 2180.58004,0.1 C2196.24004,0.2 2211.90004,0.39 2227.55004,0.77 C2258.81004,1.54 2289.98004,3.07 2321.14004,5.95 C2406.45004,13.84 2489.11004,31.72 2568.16004,66.55 C2644.01004,99.97 2712.38004,147.39 2768.53004,208.85 C2825.85004,271.6 2866.61004,344.71 2891.70004,425.67 C2904.16004,465.86 2912.34004,506.47 2917.60004,548.15 C2922.89004,589.97 2925.05004,631.82 2926.15004,673.89 C2926.37004,682.26 2926.55004,690.63 2926.71004,699 L2926.95004,711.56 L2926.95004,711.56 C2926.98004,713.65 2927.02004,715.75 2927.06004,717.84 L2943.93004,1680.22 L2943.93004,1680.22 L2949.13004,1977.09 L2949.13004,1977.09 L2949.24004,1983.74 C2949.32004,1988.18 2949.38004,1992.62 2949.45004,1997.06 C2949.59004,2005.94 2949.70004,2014.82 2949.77004,2023.71 C2949.91004,2041.48 2949.83641,2059.24 2949.47004,2077.01 C2948.72268,2111.47559 2946.67531,2145.72451 2942.43188,2179.95791 L2942.037,2183.09 L2942.06004,2183.09 C2911.92004,2418.57 2881.79004,2654.05 2851.67004,2889.52 C2842.93004,2957.81 2825.22004,3023.27 2794.57004,3085.36 C2763.97004,3147.33 2722.24004,3202.16 2670.57004,3248.06 C2619.73004,3293.22 2561.42004,3327.85 2498.30004,3352.55 C2433.03004,3378.1 2365.54004,3391.99 2296.17004,3398.78 C2265.96004,3401.73 2235.73004,3403.31 2205.40004,3404.1 C2190.20004,3404.5 2175.00004,3404.69 2159.79004,3404.8 C2154.72337,3404.83333 2149.65226,3404.85333 2144.57967,3404.86889 L2136.97004,3404.91 C2134.4367,3404.91 2131.90337,3404.91 2129.36707,3404.91 L2125.56004,3404.91 L824.270036,3404.91 C820.470036,3404.91 816.670036,3404.91 812.870036,3404.91 C805.270036,3404.87 797.670036,3404.85 790.070036,3404.8 C774.880036,3404.71 759.700036,3404.5 744.510036,3404.1 C714.210036,3403.31 684.000036,3401.74 653.820036,3398.8 C584.420036,3392.03 516.910036,3378.14 451.610036,3352.59 C388.460036,3327.89 330.120036,3293.25 279.260036,3248.07 C227.590036,3202.17 185.850036,3147.35 155.250036,3085.37 C124.600036,3023.28 106.890036,2957.82 98.1500357,2889.53 L7.76003571,2183.09 L7.76003571,2183.09 L7.79272166,2183.091 L7.79003571,2183.07 C3.32003571,2148.11 1.17003571,2113.13 0.380035715,2077.93 C7.58837437e-14,2060.32 -0.069964285,2042.71 0.060035715,2025.09 C0.120035715,2016.28 0.230035715,2007.48 0.360035715,1998.67 L0.570035715,1985.46 L0.570035715,1985.46 L1.37373942,1938.88 L1.37373942,1938.88 L3.01003571,1845.72 L3.01003571,1845.72 L20.7500357,833.46 L20.7500357,833.46 C21.243369,805.193333 21.7278135,776.935556 22.2241098,748.674815 L22.9800357,706.28 C23.0600357,701.59 23.1500357,696.9 23.2500357,692.21 C23.4400357,682.84 23.6700357,673.46 23.9500357,664.09 C24.5100357,645.37 25.3200357,626.66 26.5600357,607.97 C29.0300357,570.64 33.2300357,533.74 40.3500357,496.97 C51.0500357,441.64 67.9800357,388.58 93.0500357,337.94 C118.220036,287.11 150.610036,240.78 189.780036,199.76 C228.340036,159.39 272.470036,125.19 320.770036,97.35 C370.270036,68.82 423.100036,47.54 478.090036,32.47 C532.510036,17.56 587.240036,9.13 643.350036,4.68 C685.306286,1.355 725.486711,0.390677083 766.512071,0.112226562 L773.553756,0.0708984375 C774.728912,0.0650260417 775.904881,0.0596354167 777.081723,0.0546875 L784.153739,0 L784.153739,0 L794.807473,0 L794.807473,0 L805.524859,0 L805.524859,0 L2157.09004,0 Z M2387.45499,596.18142 L562.365026,596.18142 L562.365026,596.18142 L558.623849,596.18142 L558.623849,596.18142 L556.148402,596.208236 C554.914096,596.21847 553.684724,596.232291 552.459432,596.250892 L550.014033,596.294821 C536.591458,596.575378 523.593369,597.530667 509.880036,600.75 C491.820036,604.99 474.950036,612.79 460.740036,625.01 C446.490036,637.26 436.340036,652.73 430.510036,670.55 C426.035962,684.231481 424.612642,697.238066 424.077805,710.772822 L424.003973,712.807147 L424.003973,712.807147 L423.941846,714.850297 L423.941846,714.850297 L423.889803,716.903174 L423.889803,716.903174 L423.846222,718.96668 L423.846222,718.96668 L423.809482,721.041719 L423.809482,721.041719 L423.76365,724.177872 L423.76365,724.177872 L403.319408,2335.58135 L403.319408,2335.58135 C414.558355,2346.59406 426.739888,2356.60446 439.790036,2365.61 C450.960036,2373.32 462.530036,2380.15 474.630036,2386.28 C486.730036,2392.41 499.090036,2397.71 511.830036,2402.34 C540.460036,2412.76 570.290036,2419.55 600.200036,2424.64 C615.270036,2427.2 630.390036,2429.33 645.540036,2431.28 C656.27575,2432.65143 667.02677,2433.92592 677.77852,2435.17636 L698.962236,2437.62856 L698.962236,2437.62856 L707.242675,2438.5945 C730.700784,2441.34825 754.12956,2444.27333 777.460036,2448.07 C803.450036,2452.3 829.090036,2457.57 854.480036,2464.69 C867.650036,2468.39 880.620036,2472.55 893.400036,2477.41 C904.500036,2481.64 915.330036,2486.33 925.880036,2491.81 C934.850036,2496.48 943.450036,2501.61 951.610036,2507.62 C958.460036,2512.66 964.760036,2518.12 970.450036,2524.47 C979.760036,2534.85 986.130036,2546.23 989.400036,2559.88 C990.820036,2565.82 991.580036,2571.8 992.020036,2577.88 C992.450036,2583.83 992.640036,2589.8 992.900036,2595.77 L995.946286,2665.8 L1005.25004,2879.2 L1006.78004,2914.46 L1006.78004,2914.46 L1007.55004,2932 L1007.55004,2932 L1007.72144,2936.34422 C1007.90754,2940.76688 1008.20754,2945.3625 1009.25004,2949.57 C1010.92004,2956.3 1014.25004,2961.78 1019.03004,2966.7 C1022.01004,2969.77 1025.29004,2972.37 1028.83004,2974.75 C1033.10004,2977.62 1037.56004,2980.04 1042.20004,2982.22 C1053.80004,2987.67 1066.55004,2991.64 1078.92004,2994.7 C1094.48004,2998.55 1110.16004,3001.12 1126.06004,3003.01 C1148.06131,3005.62371 1170.05076,3006.78957 1192.11016,3007.28022 L1757.74578,3007.28022 C1779.78934,3006.79205 1801.76174,3005.63189 1823.74004,3003.02 C1839.64004,3001.13 1855.33004,2998.56 1870.89004,2994.71 C1883.27004,2991.65 1896.02004,2987.68 1907.62004,2982.23 C1912.26004,2980.05 1916.72004,2977.63 1920.99004,2974.76 C1924.53004,2972.38 1927.81004,2969.78 1930.79004,2966.71 C1935.57004,2961.79 1938.90004,2956.31 1940.56004,2949.57 C1941.59504,2945.37 1941.89879,2940.77625 1942.08722,2936.34984 L1942.26004,2932 L1942.26004,2932 L1943.03004,2914.46 L1944.57004,2879.2 C1946.66004,2831.41 1948.74004,2783.61 1950.82004,2735.81 C1952.86004,2689.13 1954.90004,2642.44 1956.93004,2595.76 C1957.19004,2589.8 1957.38004,2583.83 1957.81004,2577.87 C1958.25004,2571.8 1959.00004,2565.82 1960.43004,2559.87 C1963.71004,2546.22 1970.08004,2534.84 1979.39004,2524.47 C1985.09004,2518.12 1991.40004,2512.66 1998.24004,2507.63 C2006.41004,2501.62 2015.00004,2496.49 2023.98004,2491.83 C2034.53004,2486.35 2045.36004,2481.66 2056.47004,2477.43 C2069.26004,2472.57 2082.23004,2468.41 2095.39004,2464.72 C2120.77004,2457.6 2146.41004,2452.34 2172.40004,2448.11 C2195.73051,2444.31333 2219.15929,2441.38825 2242.61209,2438.6345 L2250.89043,2437.66856 L2250.89043,2437.66856 L2272.06957,2435.21612 C2282.8184,2433.9651 2293.56432,2432.68857 2304.30004,2431.31 C2319.45004,2429.37 2334.57004,2427.23 2349.63004,2424.67 C2379.52004,2419.58 2409.38004,2412.78 2437.99004,2402.37 C2450.72004,2397.73 2463.09004,2392.44 2475.13004,2386.28 C2487.23004,2380.15 2498.81004,2373.32 2509.97004,2365.61 C2523.03875,2356.58762 2535.24244,2346.5566 2546.50112,2335.52095 L2526.04211,723.129111 L2526.04211,723.129111 L2525.99297,720.002219 L2525.99297,720.002219 L2525.93024,716.901987 L2525.93024,716.901987 L2525.87816,714.848493 C2525.86869,714.507071 2525.85879,714.16605 2525.84844,713.825411 L2525.78061,711.786018 C2525.27611,697.879503 2523.89355,684.553519 2519.30004,670.53 C2513.47004,652.73 2503.33004,637.26 2489.09004,625.02 C2474.87004,612.79 2458.00004,604.99 2439.93004,600.75 C2426.2167,597.530667 2413.22399,596.575378 2399.80428,596.294821 L2397.35938,596.250892 C2396.54267,596.238491 2395.72414,596.228215 2394.90353,596.21971 L2392.4352,596.18142 L2392.4352,596.18142 L2388.70596,596.18142 C2388.28966,596.18142 2387.87268,596.18142 2387.45499,596.18142 L2387.45499,596.18142 Z" id="Box" fill="#2473E7" fill-rule="nonzero"></path>
            <path d="M1387.76004,1721.79 C1270.80004,1632.27 1153.85004,1542.76 1036.89004,1453.24 C1013.99004,1477.48 991.250036,1501.86 968.690036,1526.43 C957.410036,1538.71 946.190036,1551.04 935.110036,1563.5 C929.570036,1569.73 924.070036,1576 918.680036,1582.36 C915.980036,1585.55 913.310036,1588.77 910.750036,1592.08 C907.340036,1596.49 906.760036,1597.72 903.850036,1602.45 C912.100036,1608.68 914.030036,1610.11 922.080036,1616.61 C928.060036,1621.43 933.990036,1626.32 939.880036,1631.24 C951.660036,1641.09 963.340036,1651.06 974.960036,1661.1 C998.230036,1681.19 1021.31004,1701.47 1044.32004,1721.85 C1090.34004,1762.6 1136.05004,1803.69 1181.66004,1844.9 C1266.04004,1921.17 1370.41004,2016.47 1454.06004,2093.55 C1480.38004,2053.89 1516.83004,2000.47 1543.83004,1961.26 C1574.05004,1917.37 1604.52004,1873.64 1635.21004,1830.08 C1696.59004,1742.93 1758.84004,1656.43 1822.09004,1570.64 C1945.71004,1402.99 2081.77004,1226.44 2216.23004,1067.22 C2212.45004,1060.5 2212.05004,1059.72 2207.91004,1053.21 C2204.99004,1048.63 2201.99004,1044.1 2198.96004,1039.59 C2192.89004,1030.57 2186.69004,1021.65 2180.35004,1012.82 C2174.01004,1003.99 2167.57004,995.25 2160.85004,986.7 C2157.49004,982.42 2154.06004,978.2 2150.42004,974.16 C2148.61004,972.15 2146.77004,970.18 2144.74004,968.39 C2143.72004,967.48 2142.61004,966.68 2141.52004,965.88 C2140.41004,965.08 2139.31004,964.28 2138.20004,963.47 C2104.02004,991.98 2070.73004,1021.42 2037.89004,1051.45 C2005.06004,1081.48 1972.75004,1112.03 1940.74004,1142.93 C1877.67004,1203.8 1813.08004,1268.76 1752.00004,1331.61 C1689.99004,1395.42 1628.75004,1459.94 1568.05004,1524.99 C1511.84004,1585.23 1442.73004,1660.42 1387.76004,1721.79 Z" id="Checkmark" fill-opacity="0.8" fill="#05101C" fill-rule="nonzero"></path>
        </g>
    </g>
</svg>